<svg width="829" height="221" viewBox="0 0 829 221" fill="none" xmlns="http://www.w3.org/2000/svg">
<g clip-path="url(#clip0_61:2)">
<path d="M108.275 120.612H20.2554C22.0968 131.276 26.5162 139.366 33.5135 144.514C40.5109 149.662 47.8765 151.869 56.347 151.869C68.8685 151.869 77.7072 146.72 86.1777 136.057L102.382 148.191C90.2288 164.003 75.8658 171.725 55.2421 171.725C39.406 171.725 26.5162 166.21 15.8361 155.546C5.15593 144.882 0 131.644 0 115.832C0 100.755 5.52421 87.8852 16.2044 76.8536C26.8845 65.822 40.1426 60.3062 55.6104 60.3062C70.7099 60.3062 81.7583 65.822 92.8068 76.8536C103.119 88.2529 108.643 102.594 108.275 120.612ZM22.4651 102.594H85.0729C81.7583 89.7238 69.2368 80.8985 55.2421 80.8985C40.1426 80.8985 29.0942 88.2529 22.4651 102.594Z" fill="#0266D1"/>
<path d="M746.137 120.612H658.118C659.959 131.276 664.378 139.366 671.376 144.514C678.373 149.662 685.739 151.869 694.209 151.869C706.731 151.869 715.569 146.721 724.04 136.057L740.244 148.191C728.091 164.003 713.728 171.725 693.104 171.725C677.268 171.725 664.378 166.21 653.698 155.546C643.018 144.882 637.862 131.276 637.862 115.464C637.862 100.388 643.386 87.5175 654.066 76.4859C664.747 65.4543 678.005 59.9385 693.473 59.9385C708.572 59.9385 719.62 65.4543 730.669 76.4859C740.981 88.253 746.505 102.594 746.137 120.612ZM660.327 102.594H722.935C719.62 89.3561 707.099 80.8985 693.104 80.8985C678.005 80.8985 666.956 88.253 660.327 102.594Z" fill="#009999"/>
<path d="M212.498 63.6156H234.963V169.151H212.498V148.191C201.818 164.003 188.192 172.093 171.987 172.093C157.993 172.093 146.208 166.577 136.264 155.546C126.32 144.514 121.533 131.276 121.533 115.832C121.533 101.123 126.689 88.2529 136.632 77.2213C146.576 66.1896 158.361 60.6738 171.619 60.6738C179.721 60.6738 187.823 62.8801 195.189 67.2928C202.554 71.7054 208.447 77.589 212.498 84.9434V63.6156ZM215.813 116.567C215.813 107.007 212.498 98.549 205.501 91.9301C198.503 84.9434 190.401 81.6339 180.458 81.6339C170.882 81.6339 162.78 84.9434 155.783 91.9301C148.785 98.9168 145.103 106.639 145.103 115.832C145.103 125.76 148.417 134.218 155.415 141.205C162.412 148.191 170.514 151.869 180.458 151.869C190.033 151.869 198.503 148.559 205.501 141.572C212.13 134.218 215.813 126.128 215.813 116.567Z" fill="#0266D1"/>
<path d="M325.929 76.1181L311.198 88.9884C307.515 86.4143 304.2 84.208 301.254 82.7371C298.308 81.2662 294.993 80.8985 290.942 80.8985C281.735 80.8985 277.316 84.208 277.316 90.827C277.316 95.6073 283.208 100.388 294.625 104.8C306.042 109.213 314.512 114.361 319.3 119.509C324.456 125.025 327.034 131.276 327.034 138.998C327.034 147.824 323.351 155.546 315.985 162.165C308.62 168.784 300.149 172.093 290.206 172.093C275.106 172.093 262.953 165.107 253.377 151.501L271.055 143.043C277.316 148.927 283.576 151.869 290.206 151.869C294.993 151.869 298.676 150.765 302.359 148.191C305.673 145.617 307.515 142.676 307.515 139.366C307.515 133.483 301.622 128.334 289.469 123.554C277.316 118.774 268.845 113.993 264.426 109.213C259.638 104.433 257.429 98.5491 257.429 91.1947C257.429 82.3694 260.743 75.015 267.372 69.1314C274.001 63.2479 282.472 60.3062 292.415 60.3062C302.359 60.6739 313.407 65.822 325.929 76.1181Z" fill="#0266D1"/>
<path d="M567.889 46.3328H546.16C545.792 38.243 543.214 31.9917 538.795 27.9468C534.375 23.5342 528.483 21.3278 521.117 21.3278C514.856 21.3278 509.332 23.9019 504.545 29.4177C499.757 34.9335 497.179 40.817 497.179 47.8037V62.8803H527.378V83.1049H497.179V169.151H475.819V83.1049H455.563V62.8803H475.819V44.8619C475.819 32.3595 480.238 21.6956 489.445 12.8703C498.284 4.04497 509.332 -0.367676 522.222 -0.367676C534.007 -0.367676 544.687 3.67725 553.894 11.7671C563.101 20.5924 567.889 31.9917 567.889 46.3328ZM546.529 62.8803H567.889V169.151H546.529V62.8803Z" fill="#009999"/>
<path d="M623.868 2.94189H596.247V169.152H618.712V89.7239C618.712 87.5176 620.553 86.0467 622.395 86.0467H624.236C626.446 86.0467 627.919 84.2081 627.919 82.3695V6.6191C627.551 4.7805 626.077 2.94189 623.868 2.94189Z" fill="#009999"/>
<path d="M827.895 76.1182L813.164 88.9884C809.481 86.4144 806.167 84.208 803.22 82.7371C800.274 81.2663 796.959 80.5308 793.277 80.5308C784.07 80.5308 779.65 83.8403 779.65 90.4593C779.65 95.2396 785.543 100.02 796.959 104.433C808.376 108.845 816.847 113.993 821.634 119.141C826.422 124.29 829.368 130.909 829.368 138.631C829.368 147.456 825.685 155.178 818.32 161.797C810.954 168.416 802.484 171.725 792.54 171.725C777.441 171.725 765.287 164.739 755.712 151.133L773.389 142.676C779.65 148.559 785.911 151.501 792.54 151.501C797.328 151.501 801.011 150.398 804.693 147.824C808.008 145.25 809.849 142.308 809.849 138.998C809.849 133.115 803.957 127.967 791.804 123.186C779.65 118.406 771.18 113.626 766.76 108.845C762.341 104.065 759.763 98.1814 759.763 90.827C759.763 82.0017 763.078 74.6473 769.707 68.7638C776.336 62.8802 784.806 59.9385 794.75 59.9385C804.325 60.6739 815.742 65.822 827.895 76.1182Z" fill="#009999"/>
<path d="M422.05 118.774C422.05 136.792 411.738 154.075 394.797 154.075C371.227 154.075 366.808 134.586 366.808 118.038C366.808 108.845 366.439 65.822 366.439 65.822C366.439 65.822 351.708 65.822 343.606 65.822C343.606 76.8536 343.606 102.962 343.606 118.038C343.606 147.088 363.125 174.3 390.746 174.3C404.004 174.3 415.421 166.21 419.103 151.133V170.99C419.103 186.434 413.211 201.511 392.587 201.511C380.434 201.511 370.859 195.627 363.861 184.228H340.66C345.079 196.363 351.708 205.556 361.283 211.807C370.49 217.691 380.802 221 391.851 221C424.996 221 440.832 190.847 440.832 167.313V66.1897H422.05V118.774Z" fill="#0266D1"/>
</g>
<defs>
<clipPath id="clip0_61:2">
<rect width="829" height="221" fill="white"/>
</clipPath>
</defs>
</svg>
