<svg width="1439" height="186" viewBox="0 0 1439 186" fill="none" xmlns="http://www.w3.org/2000/svg">
<path d="M0 58.9753C72.3079 58.9753 93.3126 91.7988 153.452 91.7988C187.883 91.7988 205.147 81.863 235.919 68.2322C263.964 55.8026 291.583 42.7071 320.788 32.001C405.117 1.08367 490.638 1.17507 577.058 25.6426C620.358 37.9024 661.796 54.0661 705.929 64.6287C751.434 75.5307 772.336 73.2589 820.357 70.3604C863.526 67.7491 956.663 17.6652 1030.75 17.6652C1116.6 17.6652 1177.75 70.2298 1221.26 70.3604C1288.98 70.5693 1320.05 0 1440 0C1440 22.7049 1440 186 1440 186H0V58.9753Z" fill="#009999" fill-opacity="0.8"/>
</svg>
